<svg xmlns="http://www.w3.org/2000/svg" xmlns:xlink="http://www.w3.org/1999/xlink" width="411px" height="74px" viewBox="0 0 411 74" version="1.1">
    <!-- Generator: Sketch 57.1 (83088) - https://sketch.com -->
    <title>Group</title>
    <desc>Created with Sketch.</desc>
    <defs>
        <linearGradient x1="13.995192%" y1="46.999892%" x2="96.004808%" y2="46.999892%" id="linearGradient-1">
            <stop stop-color="#D0E6A5" offset="0%"/>
            <stop stop-color="#FFDD94" offset="100%"/>
        </linearGradient>
        <linearGradient x1="-183.36995%" y1="49.9740596%" x2="771.758441%" y2="49.9740596%" id="linearGradient-2">
            <stop stop-color="#D0E6A5" offset="0%"/>
            <stop stop-color="#FFDD94" offset="100%"/>
        </linearGradient>
        <linearGradient x1="-198.596072%" y1="49.9740378%" x2="440.059556%" y2="49.9740378%" id="linearGradient-3">
            <stop stop-color="#D0E6A5" offset="0%"/>
            <stop stop-color="#FFDD94" offset="100%"/>
        </linearGradient>
        <linearGradient x1="-443.419814%" y1="49.9740269%" x2="461.79376%" y2="49.9740269%" id="linearGradient-4">
            <stop stop-color="#D0E6A5" offset="0%"/>
            <stop stop-color="#FFDD94" offset="100%"/>
        </linearGradient>
        <linearGradient x1="-503.615553%" y1="49.9740487%" x2="326.554387%" y2="49.9740487%" id="linearGradient-5">
            <stop stop-color="#D0E6A5" offset="0%"/>
            <stop stop-color="#FFDD94" offset="100%"/>
        </linearGradient>
        <linearGradient x1="-666.146104%" y1="49.9740378%" x2="222.746234%" y2="49.9740378%" id="linearGradient-6">
            <stop stop-color="#D0E6A5" offset="0%"/>
            <stop stop-color="#FFDD94" offset="100%"/>
        </linearGradient>
        <linearGradient x1="-763.734485%" y1="50.0437326%" x2="99.9999579%" y2="50.0437326%" id="linearGradient-7">
            <stop stop-color="#D0E6A5" offset="0%"/>
            <stop stop-color="#FFDD94" offset="100%"/>
        </linearGradient>
        <linearGradient x1="13.995192%" y1="46.999892%" x2="96.004808%" y2="46.999892%" id="linearGradient-8">
            <stop stop-color="#D0E6A5" offset="0%"/>
            <stop stop-color="#FFDD94" offset="100%"/>
        </linearGradient>
        <linearGradient x1="0.000439240663%" y1="50.0000137%" x2="562.843534%" y2="50.0000137%" id="linearGradient-9">
            <stop stop-color="#D0E6A5" offset="0%"/>
            <stop stop-color="#FFDD94" offset="100%"/>
        </linearGradient>
        <linearGradient x1="-6.27001048%" y1="50%" x2="627.157378%" y2="50%" id="linearGradient-10">
            <stop stop-color="#D0E6A5" offset="0%"/>
            <stop stop-color="#FFDD94" offset="100%"/>
        </linearGradient>
        <linearGradient x1="-124.82593%" y1="78.9887438%" x2="1688.15027%" y2="78.9887438%" id="linearGradient-11">
            <stop stop-color="#D0E6A5" offset="0%"/>
            <stop stop-color="#FFDD94" offset="100%"/>
        </linearGradient>
    </defs>
    <g id="Page-1" stroke="none" stroke-width="1" fill="none" fill-rule="evenodd">
        <g id="Group" fill-rule="nonzero">
            <g>
                <g>
                    <path d="M79.69888,56.87743 L79.69888,17.04931 C79.69888,16.21756 79.99746,15.51377 80.59461,14.93794 C81.19177,14.36211 81.90622,14.0742 82.73797,14.0742 L119.62297,14.0742 C120.45472,14.0742 121.16384,14.37278 121.75034,14.96993 C122.33683,15.56709 122.63008,16.28154 122.63008,17.11329 L122.63008,20.12039 C122.63008,20.95214 122.33683,21.66126 121.75034,22.24776 C121.16385,22.83425 120.45473,23.1275 119.62297,23.1275 L91.75928,23.1275 L91.75928,32.43672 L115.75212,32.43672 C116.58387,32.43672 117.29299,32.72997 117.87949,33.31646 C118.46598,33.90295 118.75923,34.61207 118.75923,35.44383 L118.75923,38.45093 C118.75923,39.28268 118.46598,39.9918 117.87949,40.5783 C117.293,41.16479 116.58388,41.45804 115.75212,41.45804 L91.75928,41.45804 L91.75928,50.89522 L119.55899,50.89522 C120.39074,50.89522 121.0892,51.18313 121.65436,51.75896 C122.21952,52.33479 122.50211,53.03858 122.50211,53.87033 L122.50211,56.94141 C122.50211,57.77316 122.20353,58.48228 121.60638,59.06878 C121.00922,59.65527 120.29477,59.94852 119.46302,59.94852 L82.73798,59.94852 C81.90623,59.94852 81.19177,59.65527 80.59462,59.06878 C79.99746,58.48229 79.69888,57.75184 79.69888,56.87743 L79.69888,56.87743 Z" id="Path" fill="url(#linearGradient-2)"/>
                    <path d="M128.48433,56.94142 L128.48433,17.1133 C128.48433,16.28155 128.78291,15.56709 129.38006,14.96994 C129.97722,14.37278 130.69167,14.07421 131.52342,14.07421 L137.53763,14.07421 C138.36938,14.07421 139.0785,14.36212 139.665,14.93795 C140.25149,15.51378 140.54474,16.21757 140.54474,17.04932 L140.54474,50.89522 L154.55656,50.89522 L154.55656,17.04932 C154.55656,16.21757 154.85514,15.51378 155.45229,14.93795 C156.04945,14.36212 156.7639,14.07421 157.59565,14.07421 L163.60986,14.07421 C164.44161,14.07421 165.15073,14.37279 165.73723,14.96994 C166.32372,15.5671 166.61697,16.28155 166.61697,17.1133 L166.61697,50.89522 L180.66078,50.89522 L180.66078,17.04932 C180.66078,16.21757 180.95403,15.51378 181.54052,14.93795 C182.12701,14.36212 182.83613,14.07421 183.66789,14.07421 L189.6821,14.07421 C190.51385,14.07421 191.22297,14.37279 191.80947,14.96994 C192.39596,15.5671 192.68921,16.28155 192.68921,17.1133 L192.68921,56.94142 C192.68921,57.77317 192.39596,58.48229 191.80947,59.06879 C191.22298,59.65528 190.51386,59.94853 189.6821,59.94853 L131.52345,59.94853 C130.6917,59.94853 129.97724,59.65528 129.38009,59.06879 C128.78293,58.4823 128.48433,57.77318 128.48433,56.94142 L128.48433,56.94142 Z" id="Path" fill="url(#linearGradient-3)"/>
                    <path d="M201.83844,57.0054 L201.83844,17.1133 C201.83844,16.23889 202.12635,15.51378 202.70218,14.93795 C203.27801,14.36212 204.00313,14.07421 204.87753,14.07421 L240.89878,14.07421 C241.73053,14.07421 242.43965,14.37279 243.02615,14.96994 C243.61264,15.5671 243.90589,16.28155 243.90589,17.1133 L243.90589,20.1204 C243.90589,20.95215 243.62331,21.66127 243.05814,22.24777 C242.49298,22.83426 241.79452,23.12751 240.96277,23.12751 L213.89884,23.12751 L213.89884,30.8692 L229.70213,30.8692 C234.90591,30.8692 239.11266,32.09017 242.32237,34.53211 C245.53208,36.97405 247.13693,40.59963 247.13693,45.40887 C247.13693,50.2181 245.52674,53.84369 242.30637,56.28563 C239.086,58.72757 234.88458,59.94854 229.70213,59.94854 L204.71758,59.94854 C203.88583,59.94854 203.19803,59.66596 202.6542,59.10079 C202.11036,58.53563 201.83844,57.83717 201.83844,57.00542 L201.83844,57.0054 Z M213.89884,50.89522 L229.70213,50.89522 C233.28506,50.89522 235.07653,49.0611 235.07653,45.39286 C235.07653,41.72462 233.28506,39.8905 229.70213,39.8905 L213.89884,39.8905 L213.89884,50.89522 Z" id="Shape" fill="url(#linearGradient-4)"/>
                    <path d="M249.85612,57.0054 L257.88572,26.55049 C260.06107,18.2543 267.14163,14.09554 279.12738,14.07421 L296.37024,14.07421 C297.15934,14.07421 297.81514,14.37279 298.33765,14.96994 C298.86016,15.5671 299.12142,16.26022 299.12142,17.04932 L299.12142,57.0054 C299.12142,57.83715 298.82284,58.53561 298.22569,59.10077 C297.62853,59.66593 296.91408,59.94852 296.08233,59.94852 L290.06812,59.94852 C289.19371,59.94852 288.47393,59.66594 287.90876,59.10077 C287.3436,58.53561 287.06101,57.81582 287.06101,56.94141 L287.06101,48.87982 L264.3158,48.87982 L262.17244,56.94141 C261.95917,57.81582 261.47931,58.5356 260.73287,59.10077 C259.98643,59.66593 259.19733,59.94852 258.36558,59.94852 L252.06346,59.94852 C251.23171,59.94852 250.60256,59.66061 250.17602,59.08478 C249.87744,58.70089 249.72815,58.26369 249.72815,57.77317 C249.74948,57.53857 249.79213,57.28265 249.85611,57.0054 L249.85612,57.0054 Z M266.6831,39.82652 L287.06102,39.82652 L287.06102,23.1275 L277.94374,23.1275 C275.89635,23.1275 274.11022,23.70866 272.58534,24.87098 C271.06046,26.0333 270.03144,27.5955 269.49826,29.55758 L266.6831,39.82652 Z" id="Shape" fill="url(#linearGradient-5)"/>
                    <path d="M308.27069,56.94142 L308.27069,17.1133 C308.27069,16.28155 308.56927,15.56709 309.16642,14.96994 C309.76358,14.37278 310.49936,14.07421 311.37376,14.07421 L317.32398,14.07421 C318.15573,14.07421 318.86485,14.37279 319.45135,14.96994 C320.03784,15.5671 320.33109,16.28155 320.33109,17.1133 L320.33109,31.50901 L342.34052,31.50901 L342.34052,17.1133 C342.34052,16.28155 342.6391,15.56709 343.23625,14.96994 C343.83341,14.37278 344.54786,14.07421 345.37961,14.07421 L351.32983,14.07421 C352.20424,14.07421 352.93468,14.37279 353.52118,14.96994 C354.10767,15.5671 354.40092,16.28155 354.40092,17.1133 L354.40092,56.94142 C354.40092,57.77317 354.09701,58.48229 353.48919,59.06879 C352.88137,59.65528 352.16159,59.94853 351.32983,59.94853 L345.37961,59.94853 C344.54786,59.94853 343.8334,59.66595 343.23625,59.10078 C342.63909,58.53562 342.34052,57.83716 342.34052,57.00541 L342.34052,40.56232 L320.33109,40.56232 L320.33109,57.00541 C320.33109,57.83716 320.03784,58.53562 319.45135,59.10078 C318.86486,59.66594 318.15574,59.94853 317.32398,59.94853 L311.37376,59.94853 C310.54201,59.94853 309.81689,59.65528 309.19841,59.06879 C308.57993,58.4823 308.27069,57.77318 308.27069,56.94142 L308.27069,56.94142 Z" id="Path" fill="url(#linearGradient-6)"/>
                    <path d="M363.5502,56.87743 L363.5502,17.11329 C363.5502,16.28154 363.84878,15.55642 364.44593,14.93794 C365.04309,14.31946 365.75754,14.01022 366.58929,14.01022 L372.6035,14.01022 C373.43525,14.01022 374.14437,14.31946 374.73087,14.93794 C375.31736,15.55642 375.61061,16.28154 375.61061,17.11329 L375.61061,32.43672 L382.48856,32.43672 C384.36533,32.43672 386.01284,31.92487 387.43109,30.90118 C388.84933,29.87749 390.19826,28.22465 391.47788,25.94266 L396.4364,17.11329 C397.56673,15.0659 399.10227,14.03154 401.04303,14.01022 L408.43283,14.01022 C409.26458,14.01022 409.7551,14.3088 409.90439,14.90595 C409.94704,15.05524 409.96837,15.20453 409.96837,15.35382 C409.96837,15.84434 409.78709,16.43083 409.42453,17.1133 L402.4826,29.68555 C401.48023,31.51967 400.35523,33.03388 399.10761,34.22819 C397.85998,35.4225 396.2338,36.26492 394.22907,36.75544 C395.63665,37.05402 397.08155,37.93909 398.56378,39.41065 C400.046,40.88221 401.35228,42.48173 402.48261,44.20922 L410.48022,56.94142 C410.84278,57.5599 411.02406,58.09308 411.02406,58.54094 C411.02406,58.73288 410.99207,58.91416 410.92809,59.08478 C410.71482,59.66061 410.19231,59.94852 409.36056,59.94852 L402.03475,59.94852 C401.203,59.94852 400.30727,59.65527 399.34755,59.06878 C398.38784,58.48229 397.64139,57.77317 397.10822,56.94141 L391.4779,48.01607 C390.1343,45.84072 388.78004,44.20387 387.41511,43.10553 C386.05018,42.00719 384.40801,41.45802 382.48858,41.45802 L375.61063,41.45802 L375.61063,57.00538 C375.61063,57.83713 375.31738,58.53559 374.73089,59.10075 C374.1444,59.66591 373.43528,59.94852 372.60352,59.94852 L366.58931,59.94852 C365.75756,59.94852 365.0431,59.64459 364.44595,59.03677 C363.84879,58.42895 363.5502,57.70917 363.5502,56.87741 L363.5502,56.87743 Z" id="Path" fill="url(#linearGradient-7)"/>
                    <g>
                        <path d="M73.81264,38.08145 L73.82164,37.71745 L73.82664,37.35345 L73.82864,37.00345 L73.82864,36.99545 L73.82664,36.63145 L73.82164,36.26745 L73.81264,35.90345 L73.79964,35.53945 L73.78464,35.17645 L73.76464,34.81245 L73.74164,34.44945 L73.71564,34.08645 L73.68564,33.72345 L73.65164,33.36045 L73.61464,32.99745 L73.57364,32.63545 L73.52864,32.27445 L73.47964,31.91345 L73.42864,31.55245 L73.37264,31.19245 L73.31364,30.83245 L73.25064,30.47345 L73.18364,30.11545 L73.11364,29.75745 L73.03964,29.40145 L72.96164,29.04545 L72.88064,28.68945 L72.79664,28.33545 L72.70764,27.98145 L72.61564,27.62945 L72.51964,27.27745 L72.42064,26.92645 L72.31764,26.57745 L72.21164,26.22845 L72.10264,25.88145 L71.98864,25.53545 L71.87164,25.18945 L71.75164,24.84645 L71.62864,24.50345 L71.50164,24.16245 L71.37064,23.82245 L71.23764,23.48345 L71.10064,23.14645 L70.96264,22.81545 L70.81864,22.48145 L70.67264,22.14745 L70.52264,21.81645 L70.36864,21.48545 L70.21264,21.15645 L70.05264,20.82945 L69.88964,20.50345 L69.72364,20.17945 L69.55364,19.85745 L69.38064,19.53645 L69.20464,19.21745 L69.02564,18.90045 L68.84264,18.58545 L68.65764,18.27145 L68.46864,17.95945 L68.27664,17.65045 L68.08164,17.34245 L67.88264,17.03645 L67.68164,16.73245 L67.47764,16.43145 L67.26964,16.13145 L67.05964,15.83445 L66.84564,15.53945 L66.62864,15.24645 L66.40964,14.95545 L66.18764,14.66645 L65.96164,14.38045 L65.73364,14.09645 L65.50264,13.81445 L65.26964,13.53545 L65.03264,13.25845 L64.79364,12.98345 L64.55164,12.71145 L64.30664,12.44145 L64.05964,12.17445 L63.81064,11.90945 L63.55764,11.64745 L63.30464,11.38845 L63.15664,11.23945 L62.89764,10.98345 L62.63664,10.72945 L62.37364,10.47845 L62.10764,10.22945 L61.83864,9.98345 L61.56764,9.74045 L61.29464,9.49945 L61.01864,9.26145 L60.74064,9.02645 L60.46064,8.79445 L60.17764,8.56445 L59.89264,8.33745 L59.60564,8.11345 L59.31564,7.89245 L59.02364,7.67445 L58.72964,7.45945 L58.43364,7.24745 L58.13464,7.03745 L57.83464,6.83145 L57.53164,6.62845 L57.22764,6.42845 L56.92064,6.23145 L56.61164,6.03845 L56.30164,5.84745 L55.98864,5.66045 L55.67464,5.47545 L55.35864,5.29445 L55.04064,5.11645 L54.72064,4.94245 L54.39864,4.77145 L54.07564,4.60245 L53.75164,4.43845 L53.42464,4.27645 L53.09664,4.11845 L52.76764,3.96345 L52.43664,3.81145 L52.10364,3.66245 L51.77164,3.51845 L51.57864,3.43545 L51.24264,3.29545 L50.90464,3.15845 L50.56564,3.02545 L50.22564,2.89445 L49.88464,2.76845 L49.54164,2.64445 L49.19764,2.52445 L48.85264,2.40745 L48.50664,2.29445 L48.15864,2.18545 L47.81064,2.07945 L47.46064,1.97645 L47.10964,1.87745 L46.75864,1.78145 L46.40564,1.69045 L46.05164,1.60145 L45.69764,1.51745 L45.34264,1.43645 L44.98664,1.35845 L44.62864,1.28445 L44.27164,1.21445 L43.91364,1.14845 L43.55464,1.08545 L43.19464,1.02645 L42.83464,0.97045 L42.47364,0.91945 L42.11264,0.87045 L41.75164,0.82645 L41.38864,0.78545 L41.02664,0.74845 L40.66464,0.71445 L40.30164,0.68445 L39.93764,0.65845 L39.57464,0.63545 L39.21064,0.61645 L38.84764,0.60045 L38.48364,0.58845 L38.11964,0.57945 L37.75564,0.57445 L37.39764,0.57345 L37.03364,0.57445 L36.66964,0.58045 L36.30564,0.58845 L35.94264,0.60145 L35.57864,0.61745 L35.21464,0.63645 L34.85164,0.65945 L34.48864,0.68545 L34.12564,0.71645 L33.76264,0.74945 L33.40064,0.78745 L33.03864,0.82845 L32.67664,0.87245 L32.31564,0.92145 L31.95464,0.97345 L31.59464,1.02845 L31.23564,1.08845 L30.87624,1.15045 L30.51794,1.21745 L30.16034,1.28745 L29.80354,1.36145 L29.44744,1.43945 L29.09214,1.52045 L28.73764,1.60545 L28.38414,1.69345 L28.03154,1.78545 L27.67984,1.88145 L27.32924,1.98045 L26.97964,2.08345 L26.63114,2.18945 L26.28374,2.29945 L25.93744,2.41245 L25.59234,2.52945 L25.24854,2.64945 L24.90584,2.77345 L24.56454,2.89945 L24.22454,3.03045 L23.88584,3.16445 L23.54864,3.30045 L23.21814,3.43845 L22.88354,3.58245 L22.55034,3.72945 L22.21854,3.87945 L21.88824,4.03245 L21.55944,4.18945 L21.23214,4.34845 L20.90644,4.51145 L20.58234,4.67845 L20.25994,4.84745 L19.93924,5.02045 L19.62024,5.19645 L19.30304,5.37545 L18.98764,5.55845 L18.67404,5.74445 L18.36244,5.93245 L18.05274,6.12445 L17.74494,6.32045 L17.43924,6.51845 L17.13544,6.71945 L16.83384,6.92445 L16.53434,7.13145 L16.23694,7.34245 L15.94164,7.55545 L15.64854,7.77245 L15.35774,7.99145 L15.06914,8.21445 L14.78284,8.43945 L14.49884,8.66745 L14.21714,8.89845 L13.93774,9.13245 L13.66074,9.36845 L13.38614,9.60745 L13.11394,9.84945 L12.84424,10.09445 L12.57684,10.34145 L12.31194,10.59145 L12.04954,10.84345 L11.79084,11.09645 L11.64174,11.24545 L11.38564,11.50345 L11.13204,11.76445 L10.88094,12.02845 L10.63244,12.29445 L10.38644,12.56245 L10.14314,12.83345 L9.90234,13.10645 L9.66444,13.38245 L9.42914,13.66045 L9.19664,13.94145 L8.96694,14.22345 L8.74014,14.50945 L8.51614,14.79645 L8.29504,15.08645 L8.07694,15.37745 L7.86174,15.67145 L7.64954,15.96845 L7.44034,16.26645 L7.23424,16.56745 L7.03114,16.86945 L6.83114,17.17445 L6.63424,17.48045 L6.44054,17.78945 L6.24994,18.10045 L6.06254,18.41245 L5.87824,18.72745 L5.69724,19.04345 L5.51944,19.36145 L5.34484,19.68045 L5.17354,20.00245 L5.00544,20.32545 L4.84054,20.65045 L4.67894,20.97645 L4.52064,21.30445 L4.36554,21.63445 L4.21374,21.96545 L4.06524,22.29745 L3.92074,22.62945 L3.83824,22.82345 L3.69804,23.15945 L3.56124,23.49645 L3.42764,23.83545 L3.29744,24.17545 L3.17054,24.51745 L3.04704,24.85945 L2.92704,25.20345 L2.81044,25.54845 L2.69724,25.89545 L2.58764,26.24245 L2.48154,26.59145 L2.37894,26.94045 L2.27994,27.29145 L2.18444,27.64345 L2.09254,27.99545 L2.00424,28.34945 L1.91964,28.70345 L1.83854,29.05945 L1.76114,29.41545 L1.68744,29.77245 L1.61734,30.12945 L1.55084,30.48845 L1.48804,30.84745 L1.42894,31.20645 L1.37344,31.56645 L1.32164,31.92745 L1.27344,32.28845 L1.22894,32.65045 L1.18804,33.01245 L1.15084,33.37445 L1.11724,33.73745 L1.08724,34.10045 L1.06084,34.46345 L1.03804,34.82645 L1.01884,35.19045 L1.00314,35.55445 L0.99094,35.91745 L0.98234,36.28145 L0.97724,36.64545 L0.97564,37.00345 L0.97734,37.36745 L0.98264,37.73145 L0.99134,38.09545 L1.00364,38.45945 L1.01954,38.82245 L1.03884,39.18645 L1.06184,39.54945 L1.08834,39.91245 L1.11854,40.27545 L1.15224,40.63845 L1.18964,41.00145 L1.23064,41.36345 L1.27534,41.72445 L1.32364,42.08545 L1.37564,42.44645 L1.43124,42.80645 L1.49054,43.16645 L1.55344,43.52445 L1.62004,43.88345 L1.69034,44.24045 L1.76424,44.59745 L1.84174,44.95345 L1.92294,45.30945 L2.00774,45.66345 L2.09614,46.01745 L2.18814,46.36945 L2.28384,46.72145 L2.38294,47.07245 L2.48564,47.42145 L2.59194,47.77045 L2.70174,48.11745 L2.81504,48.46345 L2.93174,48.80845 L3.05184,49.15245 L3.17554,49.49545 L3.30244,49.83645 L3.43284,50.17645 L3.56654,50.51545 L3.70344,50.85245 L3.84144,51.18345 L3.98494,51.51745 L4.13164,51.85145 L4.28164,52.18245 L4.43494,52.51345 L4.59154,52.84145 L4.75134,53.16945 L4.91434,53.49545 L5.08074,53.81945 L5.25024,54.14145 L5.42314,54.46245 L5.59914,54.78145 L5.77844,55.09845 L5.96094,55.41345 L6.14654,55.72745 L6.33544,56.03845 L6.52744,56.34845 L6.72264,56.65645 L6.92084,56.96245 L7.12224,57.26545 L7.32674,57.56745 L7.53424,57.86745 L7.74474,58.16445 L7.95834,58.45945 L8.17484,58.75245 L8.39424,59.04345 L8.61664,59.33245 L8.84194,59.61845 L9.07004,59.90245 L9.30094,60.18445 L9.53474,60.46345 L9.77114,60.74045 L10.01034,61.01545 L10.25224,61.28745 L10.49674,61.55745 L10.74384,61.82445 L10.99354,62.08945 L11.24574,62.35145 L11.49924,62.61045 L11.64754,62.75945 L11.90614,63.01545 L12.16724,63.26945 L12.43084,63.52045 L12.69684,63.76945 L12.96524,64.01445 L13.23614,64.25845 L13.50944,64.49845 L13.78514,64.73645 L14.06324,64.97245 L14.34364,65.20445 L14.62644,65.43445 L14.91154,65.66145 L15.19884,65.88545 L15.48854,66.10645 L15.78034,66.32445 L16.07444,66.53945 L16.37064,66.75145 L16.66904,66.96145 L16.96954,67.16745 L17.27214,67.37045 L17.57674,67.57045 L17.88344,67.76745 L18.19204,67.96045 L18.50264,68.15145 L18.81514,68.33845 L19.12944,68.52345 L19.44564,68.70445 L19.76364,68.88245 L20.08344,69.05645 L20.40494,69.22745 L20.72804,69.39545 L21.05284,69.56045 L21.37924,69.72245 L21.70724,69.88045 L22.03664,70.03545 L22.36764,70.18745 L22.70004,70.33645 L23.03214,70.48045 L23.22584,70.56345 L23.56184,70.70345 L23.89924,70.84045 L24.23794,70.97345 L24.57804,71.10345 L24.91944,71.23045 L25.26224,71.35445 L25.60614,71.47445 L25.95124,71.59145 L26.29764,71.70445 L26.64504,71.81345 L26.99364,71.91945 L27.34334,72.02245 L27.69404,72.12145 L28.04574,72.21645 L28.39844,72.30845 L28.75194,72.39745 L29.10644,72.48145 L29.46174,72.56245 L29.81794,72.64045 L30.17484,72.71345 L30.53244,72.78445 L30.89074,72.85045 L31.24964,72.91345 L31.60964,72.97245 L31.96964,73.02745 L32.32964,73.07945 L32.69164,73.12745 L33.05264,73.17245 L33.41464,73.21345 L33.77664,73.25045 L34.13964,73.28445 L34.50264,73.31445 L34.86564,73.34045 L35.22964,73.36345 L35.59264,73.38245 L35.95664,73.39845 L36.32064,73.41045 L36.68464,73.41945 L37.04764,73.42445 L37.40564,73.42545 L37.76964,73.42345 L38.13364,73.41845 L38.49764,73.41045 L38.86164,73.39745 L39.22464,73.38145 L39.58864,73.36245 L39.95164,73.33945 L40.31564,73.31245 L40.67864,73.28245 L41.04064,73.24945 L41.40364,73.21145 L41.76564,73.17045 L42.12664,73.12645 L42.48864,73.07745 L42.84864,73.02545 L43.20864,72.97045 L43.56864,72.91045 L43.92764,72.84845 L44.28564,72.78145 L44.64364,72.71145 L45.00064,72.63745 L45.35664,72.55945 L45.71164,72.47845 L46.06664,72.39345 L46.41964,72.30545 L46.77264,72.21345 L47.12364,72.11745 L47.47464,72.01845 L47.82364,71.91545 L48.17264,71.80945 L48.51964,71.69945 L48.86664,71.58645 L49.21164,71.46945 L49.55564,71.34945 L49.89764,71.22545 L50.23964,71.09845 L50.57964,70.96845 L50.91764,70.83445 L51.25564,70.69845 L51.58564,70.55945 L51.92064,70.41645 L52.25364,70.26945 L52.58564,70.11945 L52.91564,69.96645 L53.24464,69.80945 L53.57164,69.65045 L53.89764,69.48745 L54.22164,69.32045 L54.54364,69.15145 L54.86464,68.97845 L55.18364,68.80245 L55.50064,68.62345 L55.81664,68.44045 L56.12964,68.25445 L56.44164,68.06645 L56.75164,67.87445 L57.05864,67.67845 L57.36464,67.48045 L57.66864,67.27945 L57.97064,67.07445 L58.26964,66.86745 L58.56664,66.65645 L58.86264,66.44345 L59.15564,66.22645 L59.44664,66.00745 L59.73464,65.78445 L60.02164,65.55945 L60.30564,65.33145 L60.58664,65.10045 L60.86664,64.86645 L61.14364,64.63045 L61.41764,64.39145 L61.68964,64.14945 L61.95964,63.90445 L62.22664,63.65745 L62.49164,63.40745 L62.75464,63.15545 L63.01264,62.90245 L63.16264,62.75345 L63.41864,62.49545 L63.67164,62.23445 L63.92264,61.97045 L64.17164,61.70445 L64.41764,61.43645 L64.66064,61.16545 L64.90164,60.89145 L65.13964,60.61645 L65.37464,60.33845 L65.60764,60.05745 L65.83664,59.77545 L66.06364,59.48945 L66.28764,59.20245 L66.50864,58.91245 L66.72664,58.62145 L66.94264,58.32745 L67.15464,58.03045 L67.36364,57.73245 L67.56964,57.43145 L67.77264,57.12945 L67.97264,56.82445 L68.16964,56.51745 L68.36364,56.20945 L68.55364,55.89845 L68.74164,55.58645 L68.92564,55.27145 L69.10664,54.95545 L69.28464,54.63745 L69.45864,54.31745 L69.63064,53.99645 L69.79864,53.67345 L69.96364,53.34845 L70.12464,53.02245 L70.28364,52.69445 L70.43864,52.36445 L70.58964,52.03345 L70.73864,51.70145 L70.88364,51.36945 L70.96564,51.17545 L71.10564,50.83945 L71.24264,50.50245 L71.37664,50.16345 L71.50664,49.82345 L71.63364,49.48145 L71.75664,49.13945 L71.87664,48.79545 L71.99364,48.45045 L72.10664,48.10345 L72.21664,47.75645 L72.32264,47.40745 L72.42464,47.05845 L72.52364,46.70745 L72.61964,46.35545 L72.71164,46.00345 L72.79964,45.64945 L72.88464,45.29445 L72.96564,44.93945 L73.04264,44.58345 L73.11664,44.22645 L73.18664,43.86845 L73.25264,43.51045 L73.31564,43.15145 L73.37464,42.79245 L73.43064,42.43245 L73.48264,42.07145 L73.53064,41.71045 L73.57464,41.34845 L73.61564,40.98645 L73.65264,40.62445 L73.68664,40.26145 L73.71664,39.89845 L73.74264,39.53545 L73.76564,39.17245 L73.78464,38.80845 L73.80064,38.44445 L73.81264,38.08145 Z M72.11265,36.30846 L72.11765,36.65546 L72.11865,36.99546 L72.11865,37.00346 L72.11765,37.34546 L72.11265,37.69246 L72.10465,38.04046 L72.09265,38.38746 L72.07765,38.73446 L72.05865,39.08146 L72.03765,39.42846 L72.01165,39.77446 L71.98365,40.12046 L71.95165,40.46646 L71.91565,40.81146 L71.87665,41.15646 L71.83465,41.50146 L71.78765,41.84546 L71.73865,42.18846 L71.68565,42.53146 L71.62965,42.87446 L71.56965,43.21546 L71.50665,43.55746 L71.43965,43.89746 L71.36965,44.23746 L71.29565,44.57646 L71.21765,44.91446 L71.13765,45.25246 L71.05365,45.58846 L70.96565,45.92446 L70.87465,46.25946 L70.78065,46.59346 L70.68265,46.92646 L70.58165,47.25846 L70.47665,47.58946 L70.36865,47.91946 L70.25765,48.24846 L70.14365,48.57546 L70.02565,48.90246 L69.90465,49.22746 L69.78065,49.55246 L69.65265,49.87546 L69.52265,50.19646 L69.38865,50.51746 L69.31065,50.69946 L69.17165,51.01946 L69.02965,51.33646 L68.88465,51.65146 L68.73665,51.96646 L68.58565,52.27846 L68.43165,52.59046 L68.27465,52.89946 L68.11465,53.20746 L67.95065,53.51346 L67.78465,53.81846 L67.61465,54.12146 L67.44265,54.42246 L67.26665,54.72246 L67.08865,55.01946 L66.90665,55.31546 L66.72265,55.60946 L66.53465,55.90146 L66.34465,56.19146 L66.15065,56.47946 L65.95465,56.76546 L65.75565,57.04946 L65.55265,57.33146 L65.34765,57.61146 L65.13965,57.88946 L64.92965,58.16546 L64.71565,58.43946 L64.49965,58.71046 L64.28065,58.98046 L64.05965,59.24746 L63.83465,59.51246 L63.60765,59.77546 L63.37865,60.03546 L63.14665,60.29346 L62.91165,60.54946 L62.67465,60.80346 L62.43465,61.05546 L62.19265,61.30446 L61.94765,61.55146 L61.80765,61.69046 L61.55865,61.93446 L61.30765,62.17546 L61.05465,62.41346 L60.79965,62.64946 L60.54265,62.88246 L60.28265,63.11346 L60.02065,63.34146 L59.75665,63.56646 L59.49065,63.78946 L59.22165,64.00946 L58.95165,64.22746 L58.67865,64.44146 L58.40365,64.65346 L58.12565,64.86246 L57.84665,65.06846 L57.56565,65.27146 L57.28265,65.47246 L56.99665,65.66946 L56.70965,65.86446 L56.42065,66.05646 L56.12965,66.24446 L55.83665,66.43046 L55.54165,66.61346 L55.24465,66.79346 L54.94565,66.96946 L54.64565,67.14346 L54.34265,67.31446 L54.03865,67.48246 L53.73365,67.64646 L53.42665,67.80846 L53.11765,67.96646 L52.80665,68.12146 L52.49465,68.27446 L52.18165,68.42346 L51.86665,68.56946 L51.54965,68.71246 L51.23165,68.85246 L50.91265,68.98946 L50.59665,69.12046 L50.27465,69.25146 L49.95165,69.37846 L49.62765,69.50346 L49.30265,69.62446 L48.97565,69.74246 L48.64765,69.85646 L48.31865,69.96746 L47.98865,70.07546 L47.65765,70.17946 L47.32565,70.28146 L46.99265,70.37846 L46.65865,70.47346 L46.32465,70.56346 L45.98865,70.65146 L45.65165,70.73546 L45.31465,70.81646 L44.97565,70.89346 L44.63665,70.96746 L44.29665,71.03746 L43.95665,71.10446 L43.61565,71.16746 L43.27365,71.22746 L42.93065,71.28346 L42.58865,71.33646 L42.24465,71.38646 L41.90065,71.43246 L41.55565,71.47446 L41.21165,71.51346 L40.86565,71.54946 L40.52065,71.58146 L40.17465,71.61046 L39.82765,71.63546 L39.48165,71.65646 L39.13465,71.67546 L38.78765,71.69046 L38.44065,71.70246 L38.09265,71.71046 L37.74565,71.71546 L37.39765,71.71646 L37.05565,71.71546 L36.70865,71.71046 L36.36065,71.70146 L36.01365,71.69046 L35.66665,71.67546 L35.31965,71.65646 L34.97365,71.63446 L34.62665,71.60946 L34.28065,71.58146 L33.93465,71.54846 L33.58965,71.51346 L33.24465,71.47446 L32.90065,71.43146 L32.55665,71.38546 L32.21265,71.33646 L31.86965,71.28346 L31.52765,71.22746 L31.18565,71.16746 L30.84425,71.10346 L30.50375,71.03746 L30.16395,70.96646 L29.82495,70.89246 L29.48665,70.81546 L29.14915,70.73446 L28.81255,70.65046 L28.47675,70.56346 L28.14195,70.47246 L27.80795,70.37746 L27.47495,70.28046 L27.14305,70.17846 L26.81205,70.07446 L26.48215,69.96646 L26.15335,69.85546 L25.82555,69.74046 L25.49895,69.62346 L25.17355,69.50246 L24.84925,69.37746 L24.52625,69.25046 L24.20445,69.11946 L23.88385,68.98646 L23.70235,68.90846 L23.38215,68.76946 L23.06505,68.62746 L22.74935,68.48246 L22.43515,68.33446 L22.12245,68.18346 L21.81135,68.02946 L21.50175,67.87246 L21.19375,67.71146 L20.88745,67.54846 L20.58285,67.38246 L20.27995,67.21246 L19.97875,67.04046 L19.67935,66.86446 L19.38185,66.68546 L19.08605,66.50446 L18.79215,66.31946 L18.50025,66.13246 L18.21015,65.94146 L17.92205,65.74846 L17.63595,65.55146 L17.35185,65.35246 L17.06975,65.15046 L16.78975,64.94546 L16.51185,64.73746 L16.23605,64.52646 L15.96235,64.31346 L15.69075,64.09746 L15.42135,63.87846 L15.15415,63.65646 L14.88915,63.43246 L14.62635,63.20546 L14.36585,62.97546 L14.10755,62.74346 L13.85145,62.50846 L13.59775,62.27146 L13.34625,62.03246 L13.09705,61.78946 L12.85025,61.54546 L12.71095,61.40546 L12.46655,61.15546 L12.22585,60.90546 L11.98765,60.65246 L11.75185,60.39746 L11.51865,60.13946 L11.28805,59.88046 L11.06005,59.61846 L10.83455,59.35446 L10.61185,59.08746 L10.39185,58.81946 L10.17455,58.54846 L9.95995,58.27546 L9.74815,58.00046 L9.53915,57.72346 L9.33295,57.44446 L9.12965,57.16346 L8.92925,56.87946 L8.73165,56.59446 L8.53705,56.30746 L8.34535,56.01746 L8.15665,55.72646 L7.97085,55.43346 L7.78805,55.13846 L7.60825,54.84146 L7.43155,54.54346 L7.25775,54.24246 L7.08715,53.94046 L6.91945,53.63646 L6.75485,53.33046 L6.59335,53.02346 L6.43495,52.71446 L6.27955,52.40446 L6.12735,52.09246 L5.97815,51.77846 L5.83205,51.46346 L5.68895,51.14746 L5.54905,50.82946 L5.41225,50.50946 L5.28065,50.19446 L5.15005,49.87246 L5.02255,49.54946 L4.89835,49.22546 L4.77735,48.89946 L4.65955,48.57346 L4.54515,48.24546 L4.43395,47.91646 L4.32615,47.58646 L4.22165,47.25546 L4.12045,46.92346 L4.02275,46.59046 L3.92835,46.25646 L3.83745,45.92146 L3.74985,45.58546 L3.66575,45.24946 L3.58515,44.91146 L3.50795,44.57346 L3.43415,44.23446 L3.36385,43.89446 L3.29705,43.55446 L3.23375,43.21246 L3.17385,42.87146 L3.11755,42.52846 L3.06465,42.18546 L3.01525,41.84246 L2.96925,41.49846 L2.92685,41.15346 L2.88785,40.80846 L2.85225,40.46346 L2.82015,40.11746 L2.79155,39.77146 L2.76635,39.42546 L2.74455,39.07846 L2.72615,38.73146 L2.71105,38.38446 L2.69945,38.03746 L2.69115,37.69046 L2.68625,37.34346 L2.68465,36.99546 L2.68625,36.65346 L2.69125,36.30546 L2.69955,35.95846 L2.71115,35.61146 L2.72625,35.26446 L2.74465,34.91746 L2.76645,34.57046 L2.79175,34.22446 L2.82045,33.87846 L2.85255,33.53246 L2.88815,33.18746 L2.92715,32.84246 L2.96965,32.49746 L3.01565,32.15346 L3.06505,31.81046 L3.11795,31.46746 L3.17445,31.12446 L3.23425,30.78246 L3.29765,30.44146 L3.36445,30.10146 L3.43485,29.76146 L3.50855,29.42246 L3.58585,29.08446 L3.66655,28.74646 L3.75065,28.41046 L3.83815,28.07446 L3.92915,27.73946 L4.02355,27.40546 L4.12135,27.07246 L4.22255,26.74046 L4.32705,26.40946 L4.43485,26.07946 L4.54605,25.75046 L4.66055,25.42346 L4.77835,25.09646 L4.89935,24.77146 L5.02355,24.44646 L5.15105,24.12346 L5.28165,23.80146 L5.41545,23.48146 L5.49285,23.29946 L5.63225,22.97946 L5.77405,22.66246 L5.91895,22.34646 L6.06695,22.03246 L6.21795,21.71946 L6.37205,21.40846 L6.52935,21.09946 L6.68955,20.79146 L6.85295,20.48446 L7.01935,20.18046 L7.18885,19.87746 L7.36135,19.57646 L7.53685,19.27646 L7.71545,18.97946 L7.89705,18.68346 L8.08165,18.38946 L8.26915,18.09746 L8.45975,17.80746 L8.65315,17.51946 L8.84955,17.23346 L9.04875,16.94946 L9.25095,16.66746 L9.45595,16.38746 L9.66385,16.10946 L9.87445,15.83346 L10.08795,15.55946 L10.30415,15.28846 L10.52305,15.01846 L10.74475,14.75146 L10.96905,14.48646 L11.19595,14.22346 L11.42555,13.96346 L11.65765,13.70546 L11.89235,13.44846 L12.12955,13.19546 L12.36925,12.94346 L12.61145,12.69446 L12.85605,12.44746 L12.99605,12.30846 L13.24555,12.06446 L13.49615,11.82346 L13.74905,11.58546 L14.00415,11.34946 L14.26155,11.11646 L14.52125,10.88546 L14.78315,10.65746 L15.04725,10.43246 L15.31365,10.20946 L15.58215,9.98946 L15.85285,9.77246 L16.12575,9.55746 L16.40075,9.34546 L16.67785,9.13646 L16.95705,8.93046 L17.23825,8.72746 L17.52165,8.52646 L17.80695,8.32946 L18.09425,8.13446 L18.38355,7.94246 L18.67465,7.75446 L18.96785,7.56846 L19.26275,7.38546 L19.55965,7.20546 L19.85825,7.02946 L20.15875,6.85546 L20.46095,6.68446 L20.76485,6.51646 L21.07045,6.35246 L21.37775,6.19046 L21.68665,6.03246 L21.99715,5.87746 L22.30915,5.72446 L22.62275,5.57546 L22.93775,5.42946 L23.25425,5.28646 L23.57225,5.14646 L23.89155,5.00946 L24.20685,4.87846 L24.52875,4.74746 L24.85185,4.62046 L25.17615,4.49546 L25.50165,4.37446 L25.82825,4.25746 L26.15605,4.14246 L26.48495,4.03146 L26.81485,3.92346 L27.14585,3.81946 L27.47785,3.71846 L27.81085,3.62046 L28.14485,3.52546 L28.47975,3.43446 L28.81555,3.34746 L29.15215,3.26346 L29.48965,3.18246 L29.82795,3.10546 L30.16695,3.03146 L30.50675,2.96146 L30.84725,2.89446 L31.18865,2.83146 L31.53065,2.77146 L31.87265,2.71546 L32.21565,2.66246 L32.55965,2.61246 L32.90365,2.56646 L33.24765,2.52446 L33.59265,2.48546 L33.93765,2.44946 L34.28365,2.41746 L34.62965,2.38946 L34.97565,2.36346 L35.32265,2.34246 L35.66965,2.32346 L36.01665,2.30846 L36.36365,2.29646 L36.71065,2.28846 L37.05865,2.28346 L37.40565,2.28246 L37.74765,2.28346 L38.09565,2.28846 L38.44265,2.29746 L38.79065,2.30846 L39.13765,2.32346 L39.48365,2.34246 L39.83065,2.36446 L40.17665,2.38946 L40.52365,2.41746 L40.86865,2.45046 L41.21465,2.48546 L41.55965,2.52446 L41.90365,2.56746 L42.24765,2.61346 L42.59165,2.66246 L42.93465,2.71546 L43.27665,2.77146 L43.61865,2.83146 L43.95965,2.89546 L44.30065,2.96246 L44.63965,3.03246 L44.97865,3.10646 L45.31765,3.18346 L45.65465,3.26446 L45.99165,3.34846 L46.32765,3.43546 L46.66165,3.52646 L46.99565,3.62146 L47.32865,3.71846 L47.66065,3.82046 L47.99165,3.92446 L48.32165,4.03246 L48.65065,4.14346 L48.97865,4.25846 L49.30465,4.37546 L49.63065,4.49646 L49.95465,4.62146 L50.27765,4.74846 L50.59965,4.87946 L50.91965,5.01246 L51.10165,5.09046 L51.42165,5.22946 L51.73865,5.37146 L52.05465,5.51646 L52.36865,5.66446 L52.68165,5.81546 L52.99265,5.96946 L53.30265,6.12646 L53.61065,6.28746 L53.91665,6.45046 L54.22065,6.61646 L54.52365,6.78646 L54.82565,6.95846 L55.12465,7.13446 L55.42265,7.31246 L55.71765,7.49446 L56.01165,7.67946 L56.30365,7.86646 L56.59365,8.05746 L56.88165,8.25046 L57.16765,8.44746 L57.45265,8.64646 L57.73465,8.84846 L58.01465,9.05346 L58.29165,9.26146 L58.56765,9.47246 L58.84165,9.68546 L59.11365,9.90146 L59.38265,10.12046 L59.64965,10.34246 L59.91465,10.56646 L60.17765,10.79346 L60.43865,11.02346 L60.69665,11.25546 L60.95265,11.48946 L61.20665,11.72746 L61.45765,11.96646 L61.70665,12.20846 L61.95365,12.45346 L62.09265,12.59346 L62.33765,12.84346 L62.57765,13.09346 L62.81665,13.34646 L63.05165,13.60146 L63.28565,13.85946 L63.51565,14.11846 L63.74365,14.38046 L63.96965,14.64446 L64.19165,14.91146 L64.41165,15.17946 L64.62965,15.45046 L64.84365,15.72346 L65.05565,15.99846 L65.26465,16.27546 L65.47065,16.55446 L65.67465,16.83546 L65.87465,17.11946 L66.07265,17.40446 L66.26665,17.69146 L66.45865,17.98046 L66.64765,18.27246 L66.83265,18.56546 L67.01565,18.86046 L67.19565,19.15746 L67.37265,19.45546 L67.54665,19.75646 L67.71665,20.05846 L67.88465,20.36246 L68.04865,20.66746 L68.21065,20.97546 L68.36865,21.28446 L68.52465,21.59446 L68.67665,21.90646 L68.82565,22.22046 L68.97165,22.53546 L69.11465,22.85146 L69.25465,23.16946 L69.39165,23.48946 L69.52365,23.80446 L69.65365,24.12646 L69.78165,24.44946 L69.90565,24.77346 L70.02665,25.09946 L70.14465,25.42546 L70.25865,25.75346 L70.36965,26.08246 L70.47765,26.41246 L70.58265,26.74346 L70.68365,27.07546 L70.78065,27.40846 L70.87565,27.74246 L70.96665,28.07746 L71.05365,28.41346 L71.13865,28.74946 L71.21865,29.08746 L71.29565,29.42546 L71.36965,29.76446 L71.43965,30.10446 L71.50665,30.44446 L71.56965,30.78646 L71.62965,31.12746 L71.68665,31.47046 L71.73965,31.81346 L71.78865,32.15646 L71.83465,32.50046 L71.87665,32.84546 L71.91565,33.19046 L71.95165,33.53546 L71.98365,33.88146 L72.01265,34.22746 L72.03765,34.57346 L72.05965,34.92046 L72.07765,35.26646 L72.09265,35.61346 L72.10465,35.96146 L72.11265,36.30846 Z" id="Shape" fill="url(#linearGradient-9)"/>
                        <path d="M37.4018,4.6326 C19.52618,4.6326 5.03484,19.12354 5.03484,36.99946 C5.03484,54.87538 19.52618,69.36632 37.4018,69.36632 C55.27772,69.36632 69.76966,54.87538 69.76966,36.99946 C69.76966,19.12354 55.27772,4.6326 37.4018,4.6326 L37.4018,4.6326 Z M18.04379,59.06836 C17.44659,58.48136 17.14799,57.77237 17.14799,56.94037 L17.14799,17.11254 C17.14799,16.28154 17.43589,15.56655 18.01179,14.96955 C18.58759,14.37255 19.29138,14.07355 20.12308,14.07355 L44.53177,14.07355 C57.41271,14.07355 63.85969,20.01852 63.8697041,31.90847 C63.88069,43.79842 57.43472,49.74339 44.53177,49.74339 L29.20834,49.74339 L29.20834,56.94036 C29.20834,57.77236 28.91514,58.48135 28.32864,59.06835 C27.74211,59.65501 27.03298,59.94835 26.20125,59.94835 L20.18708,59.94835 C19.35538,59.94835 18.64089,59.65435 18.04379,59.06835 L18.04379,59.06836 Z" id="Shape" fill="url(#linearGradient-10)"/>
                        <path d="M49.04275,38.88245 C47.18676,40.08744 44.46777,40.68944 40.88479,40.68944 L29.20834,40.68944 L29.20834,23.12752 L40.88479,23.12752 C44.46777,23.12752 47.18676,23.72952 49.04275,24.93451 C50.89774,26.1395 51.82574,28.46449 51.82574,31.90848 C51.82574,35.35246 50.89774,37.67745 49.04275,38.88245 L49.04275,38.88245 Z" id="Path" fill="url(#linearGradient-11)"/>
                    </g>
                </g>
            </g>
        </g>
    </g>
</svg>